<mxfile host="app.diagrams.net" agent="Mozilla/5.0 (Windows NT 10.0; Win64; x64) AppleWebKit/537.36 (KHTML, like Gecko) Chrome/138.0.0.0 Safari/537.36 Edg/138.0.0.0" version="27.2.0">
  <diagram name="Página-1" id="y-uM-3wumSjXVZIRiF2a">
    <mxGraphModel dx="1244" dy="1841" grid="1" gridSize="10" guides="1" tooltips="1" connect="1" arrows="1" fold="1" page="1" pageScale="1" pageWidth="827" pageHeight="1169" math="0" shadow="0">
      <root>
        <mxCell id="0" />
        <mxCell id="1" parent="0" />
        <mxCell id="Q1j9RL0Msab3s_9sIhca-16" value="" style="rounded=0;whiteSpace=wrap;html=1;" parent="1" vertex="1">
          <mxGeometry x="200" y="-160" width="390" height="590" as="geometry" />
        </mxCell>
        <mxCell id="Q1j9RL0Msab3s_9sIhca-10" value="Usuário Final" style="shape=umlActor;verticalLabelPosition=bottom;verticalAlign=top;html=1;outlineConnect=0;" parent="1" vertex="1">
          <mxGeometry x="110" y="280" width="30" height="60" as="geometry" />
        </mxCell>
        <mxCell id="Q1j9RL0Msab3s_9sIhca-12" style="rounded=0;orthogonalLoop=1;jettySize=auto;html=1;endArrow=none;startFill=0;" parent="1" source="Q1j9RL0Msab3s_9sIhca-11" target="Q1j9RL0Msab3s_9sIhca-10" edge="1">
          <mxGeometry relative="1" as="geometry" />
        </mxCell>
        <mxCell id="Q1j9RL0Msab3s_9sIhca-20" style="rounded=0;orthogonalLoop=1;jettySize=auto;html=1;endArrow=none;startFill=0;entryX=1;entryY=0.5;entryDx=0;entryDy=0;" parent="1" source="Q1j9RL0Msab3s_9sIhca-18" target="Q1j9RL0Msab3s_9sIhca-30" edge="1">
          <mxGeometry relative="1" as="geometry" />
        </mxCell>
        <mxCell id="Q1j9RL0Msab3s_9sIhca-18" value="Operador" style="shape=umlActor;verticalLabelPosition=bottom;verticalAlign=top;html=1;outlineConnect=0;" parent="1" vertex="1">
          <mxGeometry x="620" y="-112.83" width="30" height="60" as="geometry" />
        </mxCell>
        <mxCell id="Q1j9RL0Msab3s_9sIhca-22" value="&lt;font style=&quot;font-size: 20px;&quot;&gt;Sistema&lt;/font&gt;" style="text;html=1;align=center;verticalAlign=middle;whiteSpace=wrap;rounded=0;strokeWidth=5;" parent="1" vertex="1">
          <mxGeometry x="210" y="-150" width="117.69202116273698" height="37.17391304347826" as="geometry" />
        </mxCell>
        <mxCell id="Q1j9RL0Msab3s_9sIhca-11" value="Visualizar Documento NCL" style="ellipse;whiteSpace=wrap;html=1;" parent="1" vertex="1">
          <mxGeometry x="225.3" y="310" width="154.7" height="99.13" as="geometry" />
        </mxCell>
        <mxCell id="Q1j9RL0Msab3s_9sIhca-17" value="Montar Documento NCL" style="ellipse;whiteSpace=wrap;html=1;" parent="1" vertex="1">
          <mxGeometry x="350.00094339622643" y="170" width="164.14301886792455" height="99.13" as="geometry" />
        </mxCell>
        <mxCell id="Q1j9RL0Msab3s_9sIhca-26" value="&amp;lt;&amp;lt;include&amp;gt;&amp;gt;" style="html=1;verticalAlign=bottom;labelBackgroundColor=none;endArrow=open;endFill=0;dashed=1;rounded=0;exitX=0.5;exitY=0;exitDx=0;exitDy=0;" parent="1" source="Q1j9RL0Msab3s_9sIhca-11" target="Q1j9RL0Msab3s_9sIhca-17" edge="1">
          <mxGeometry width="160" relative="1" as="geometry">
            <mxPoint x="907.4176325803223" y="234.56521739130432" as="sourcePoint" />
            <mxPoint x="907.4176325803223" y="135.43478260869566" as="targetPoint" />
          </mxGeometry>
        </mxCell>
        <mxCell id="Q1j9RL0Msab3s_9sIhca-19" value="Tratar Json" style="ellipse;whiteSpace=wrap;html=1;" parent="1" vertex="1">
          <mxGeometry x="219.99908506613497" y="19.99652173913043" width="155.51113083108746" height="99.13043478260869" as="geometry" />
        </mxCell>
        <mxCell id="Q1j9RL0Msab3s_9sIhca-21" value="&amp;lt;&amp;lt;include&amp;gt;&amp;gt;" style="html=1;verticalAlign=bottom;labelBackgroundColor=none;endArrow=open;endFill=0;dashed=1;rounded=0;entryX=0.5;entryY=1;entryDx=0;entryDy=0;" parent="1" source="Q1j9RL0Msab3s_9sIhca-17" target="Q1j9RL0Msab3s_9sIhca-19" edge="1">
          <mxGeometry width="160" relative="1" as="geometry">
            <mxPoint x="364.5157285070517" y="73.47826086956522" as="sourcePoint" />
            <mxPoint x="627.7408941183345" y="73.47826086956522" as="targetPoint" />
          </mxGeometry>
        </mxCell>
        <mxCell id="Q1j9RL0Msab3s_9sIhca-30" value="Carregar Informações" style="ellipse;whiteSpace=wrap;html=1;" parent="1" vertex="1">
          <mxGeometry x="361.8760999729764" y="-99.00347826086957" width="186.2442209513793" height="99.13043478260869" as="geometry" />
        </mxCell>
        <mxCell id="Q1j9RL0Msab3s_9sIhca-32" value="&amp;lt;&amp;lt;include&amp;gt;&amp;gt;" style="html=1;verticalAlign=bottom;labelBackgroundColor=none;endArrow=open;endFill=0;dashed=1;rounded=0;entryX=0;entryY=0.5;entryDx=0;entryDy=0;exitX=0.5;exitY=0;exitDx=0;exitDy=0;" parent="1" source="Q1j9RL0Msab3s_9sIhca-19" target="Q1j9RL0Msab3s_9sIhca-30" edge="1">
          <mxGeometry width="160" relative="1" as="geometry">
            <mxPoint x="635" y="153" as="sourcePoint" />
            <mxPoint x="610" y="90" as="targetPoint" />
          </mxGeometry>
        </mxCell>
      </root>
    </mxGraphModel>
  </diagram>
</mxfile>
